<?xml version="1.0" standalone="no"?>
<!DOCTYPE svg PUBLIC "-//W3C//DTD SVG 20010904//EN"
 "http://www.w3.org/TR/2001/REC-SVG-20010904/DTD/svg10.dtd">
<svg version="1.0" xmlns="http://www.w3.org/2000/svg"
 width="1280.000000pt" height="1280.000000pt" viewBox="0 0 1280.000000 1280.000000"
 preserveAspectRatio="xMidYMid meet">

<g transform="translate(0.000000,1280.000000) scale(0.100000,-0.100000)"
fill="#000000" stroke="none">
<path d="M6130 12791 c0 -7 -31 -11 -82 -11 -223 -1 -890 -94 -1113 -156 -391
-107 -535 -149 -562 -160 -18 -8 -88 -34 -155 -58 -68 -24 -175 -64 -238 -90
-121 -49 -123 -50 -263 -115 -49 -23 -94 -41 -102 -41 -8 0 -17 -5 -20 -10 -4
-6 -47 -31 -97 -56 -50 -25 -130 -67 -177 -94 -47 -26 -104 -57 -126 -70 -208
-115 -565 -360 -770 -528 -11 -10 -43 -35 -70 -57 -139 -111 -363 -315 -494
-450 -168 -173 -247 -258 -318 -345 -12 -14 -40 -47 -63 -75 -61 -73 -70 -83
-130 -160 -30 -39 -58 -74 -62 -80 -21 -25 -129 -178 -184 -260 -102 -151
-234 -360 -234 -370 0 -3 -11 -22 -23 -43 -13 -20 -59 -104 -102 -187 -42 -82
-84 -157 -91 -166 -8 -8 -14 -20 -14 -26 0 -6 -16 -46 -36 -89 -66 -145 -72
-158 -119 -274 -26 -63 -51 -124 -55 -135 -5 -11 -18 -49 -30 -85 -12 -36 -34
-99 -50 -140 -46 -126 -142 -454 -165 -570 -4 -19 -11 -41 -15 -50 -28 -53
-123 -687 -140 -930 -6 -85 -15 -180 -20 -211 -13 -72 -13 -534 0 -596 5 -26
12 -100 15 -163 2 -63 6 -128 8 -145 3 -16 8 -61 11 -100 4 -38 9 -81 11 -95
2 -14 6 -52 10 -85 3 -33 12 -89 20 -125 8 -36 28 -144 46 -240 17 -96 39
-204 49 -240 10 -36 30 -108 44 -160 15 -52 29 -102 31 -110 3 -8 11 -41 19
-73 15 -61 40 -140 61 -192 7 -16 25 -70 41 -120 16 -49 32 -91 37 -93 4 -2 7
-11 7 -21 0 -9 4 -21 8 -27 5 -5 19 -38 32 -74 13 -36 33 -87 45 -115 84 -191
138 -312 146 -325 22 -39 69 -139 69 -149 0 -6 4 -11 9 -11 5 0 14 -12 20 -27
6 -16 27 -55 46 -88 19 -33 44 -77 56 -98 34 -65 141 -242 148 -247 4 -3 18
-25 32 -50 13 -25 29 -51 36 -57 6 -7 21 -29 34 -50 13 -21 25 -40 29 -43 13
-12 90 -120 90 -127 0 -4 13 -22 28 -40 30 -35 67 -82 97 -124 11 -15 65 -82
120 -149 55 -67 109 -132 120 -146 10 -13 54 -60 96 -104 42 -44 75 -80 73
-80 -12 0 361 -357 461 -441 22 -19 42 -36 45 -39 3 -3 52 -43 110 -90 58 -46
107 -88 108 -92 2 -5 10 -8 17 -8 7 0 15 -4 17 -8 5 -12 127 -105 178 -135 25
-14 57 -38 72 -52 15 -14 29 -25 32 -25 3 0 49 -30 103 -67 100 -68 329 -205
463 -276 41 -22 77 -43 80 -47 3 -4 20 -12 39 -18 18 -7 56 -25 82 -42 27 -16
53 -30 57 -30 4 0 61 -24 127 -54 66 -30 140 -63 165 -74 71 -31 229 -92 239
-92 5 0 11 -3 13 -7 2 -5 44 -21 93 -37 50 -15 104 -34 120 -41 33 -14 142
-48 245 -76 255 -70 344 -92 409 -104 40 -8 94 -18 120 -24 25 -6 100 -20 166
-31 66 -11 148 -25 183 -31 104 -18 329 -41 457 -46 66 -2 124 -8 130 -14 13
-13 622 -12 630 1 4 6 55 10 121 10 63 0 114 4 114 8 0 5 30 10 68 11 94 3
284 28 467 61 33 6 83 15 110 20 112 19 224 42 290 60 39 10 93 24 120 30 28
7 77 20 110 31 33 10 110 33 170 50 61 17 124 37 140 44 17 7 71 26 120 41 50
16 92 32 93 37 2 4 8 7 13 7 12 0 177 64 247 96 29 13 54 24 57 24 2 0 52 23
110 50 58 28 110 50 116 50 5 0 27 11 49 25 22 14 59 33 82 42 24 9 45 20 48
23 3 4 39 25 80 47 102 55 366 209 382 223 24 21 180 120 189 120 5 0 9 3 9 8
0 4 46 39 101 77 55 39 117 85 137 102 21 18 40 33 44 33 6 0 136 105 257 208
24 20 49 40 55 44 6 4 48 43 94 87 46 45 85 81 87 81 11 0 369 373 432 449 15
19 71 86 123 150 52 64 108 134 125 156 16 22 33 45 38 50 20 24 183 256 225
320 111 171 132 203 158 251 16 29 44 78 63 110 19 33 50 88 69 124 19 36 39
67 43 68 5 2 9 10 9 17 0 16 59 133 71 141 5 3 9 11 9 19 0 8 18 53 41 102 38
83 63 139 93 208 8 17 31 75 52 130 21 55 42 102 46 103 5 2 8 10 8 18 0 14
52 171 69 209 11 24 44 132 70 230 10 39 35 131 56 205 32 119 75 322 106 504
5 33 12 63 15 67 2 5 9 48 14 96 5 48 16 147 25 218 8 72 18 184 21 250 4 66
10 124 15 130 12 12 12 618 0 630 -5 6 -11 64 -15 130 -3 66 -13 179 -21 250
-9 72 -20 166 -24 210 -5 44 -14 100 -19 125 -11 49 -19 91 -53 275 -11 66
-29 147 -39 180 -10 33 -26 94 -36 135 -9 41 -23 90 -31 107 -7 18 -13 34 -12
35 3 11 -55 215 -76 263 -7 17 -26 71 -41 120 -16 50 -31 92 -34 95 -3 3 -21
46 -40 95 -18 50 -49 123 -67 163 -18 41 -33 75 -33 77 0 2 -20 46 -45 99 -25
53 -45 103 -45 111 0 8 -4 17 -10 20 -11 7 -70 127 -70 143 0 6 -4 12 -8 14
-5 2 -27 37 -49 78 -36 67 -128 229 -172 301 -36 60 -81 127 -169 252 -51 73
-95 139 -99 147 -3 8 -18 29 -32 46 -14 17 -35 44 -46 60 -32 46 -217 276
-255 317 -19 21 -38 44 -42 50 -3 7 -42 49 -86 95 -43 45 -78 82 -77 82 1 0
-39 42 -89 93 -114 115 -327 317 -336 317 -4 0 -17 12 -31 26 -47 51 -357 295
-500 393 -35 25 -65 48 -67 53 -2 4 -8 8 -12 8 -5 0 -53 30 -107 67 -113 77
-339 211 -498 296 -22 12 -42 25 -45 28 -3 3 -21 11 -40 19 -19 8 -57 27 -83
42 -26 15 -52 28 -56 28 -5 0 -57 23 -117 51 -129 61 -393 169 -411 169 -7 0
-13 5 -13 10 0 6 -7 10 -16 10 -18 0 -118 33 -172 57 -18 8 -56 21 -85 29 -60
18 -187 54 -202 57 -5 2 -32 10 -60 19 -27 8 -68 20 -90 26 -140 37 -177 46
-240 58 -113 21 -128 24 -160 34 -16 5 -61 14 -100 19 -38 5 -115 17 -170 26
-55 8 -122 18 -150 21 -27 3 -79 9 -113 14 -35 5 -70 6 -79 3 -8 -3 -24 -1
-36 5 -40 21 -837 42 -837 23z m915 -194 c83 -9 175 -20 205 -26 30 -5 75 -12
100 -16 25 -3 70 -10 100 -15 30 -6 80 -14 110 -19 30 -5 75 -14 99 -21 24 -6
67 -16 95 -21 94 -16 309 -70 416 -104 237 -74 540 -181 582 -205 10 -6 25
-10 33 -10 8 0 15 -4 15 -10 0 -5 6 -10 13 -10 16 0 122 -43 139 -57 7 -6 24
-14 38 -18 41 -12 268 -125 367 -182 51 -29 95 -53 98 -53 10 0 230 -134 233
-142 2 -4 8 -8 14 -8 6 0 51 -27 100 -60 49 -33 93 -60 98 -60 6 0 10 -4 10
-8 0 -4 13 -15 29 -25 16 -9 57 -38 92 -64 35 -25 84 -61 109 -79 25 -19 50
-37 55 -42 6 -4 60 -47 120 -96 232 -186 544 -485 758 -726 160 -179 392 -482
511 -665 22 -33 43 -61 48 -63 4 -2 8 -9 8 -15 0 -7 9 -23 20 -37 11 -14 20
-31 20 -39 0 -7 8 -21 18 -30 17 -15 73 -109 142 -236 18 -33 36 -65 41 -70
10 -13 179 -352 179 -360 0 -3 15 -38 34 -78 93 -199 190 -461 284 -769 65
-211 150 -606 182 -843 6 -44 15 -107 20 -140 30 -183 41 -410 41 -801 0 -223
-2 -408 -5 -412 -2 -4 -9 -70 -16 -147 -15 -189 -61 -499 -102 -685 -26 -121
-77 -336 -89 -375 -4 -16 -18 -64 -30 -105 -32 -114 -126 -391 -176 -520 -47
-122 -62 -155 -112 -262 -17 -37 -31 -69 -31 -72 0 -7 -129 -267 -162 -326
-13 -25 -38 -70 -55 -100 -75 -135 -122 -213 -142 -236 -11 -13 -21 -29 -21
-34 0 -9 -119 -196 -143 -225 -4 -5 -38 -53 -74 -105 -68 -96 -280 -365 -339
-430 -18 -19 -42 -47 -53 -62 -35 -45 -308 -325 -413 -424 -51 -49 -225 -202
-296 -261 -134 -113 -403 -313 -420 -313 -5 0 -15 -7 -22 -15 -12 -15 -206
-145 -216 -145 -3 0 -33 -19 -67 -42 -34 -23 -81 -53 -104 -65 -47 -25 -95
-51 -188 -103 -73 -40 -333 -170 -340 -170 -3 0 -36 -14 -73 -31 -121 -55
-146 -66 -252 -107 -162 -63 -332 -122 -350 -122 -9 0 -20 -4 -25 -8 -6 -5
-37 -17 -70 -26 -33 -10 -71 -22 -84 -27 -14 -6 -43 -14 -65 -19 -23 -4 -77
-18 -121 -30 -83 -22 -328 -77 -405 -90 -46 -8 -286 -46 -350 -56 -44 -6 -85
-10 -233 -23 -64 -5 -122 -13 -127 -16 -13 -8 -888 -8 -900 0 -6 4 -65 11
-133 16 -141 12 -179 16 -227 23 -19 3 -96 15 -170 27 -74 11 -157 25 -185 29
-51 9 -369 81 -440 100 -22 6 -58 15 -81 20 -22 5 -51 13 -65 19 -13 5 -49 17
-79 26 -30 8 -64 19 -75 24 -11 4 -72 25 -135 45 -97 32 -220 77 -317 117
-179 72 -580 266 -651 314 -20 14 -40 25 -43 25 -9 0 -152 84 -206 121 -23 16
-44 29 -47 29 -4 0 -47 27 -97 60 -50 33 -94 60 -99 60 -5 0 -10 3 -12 8 -1 4
-50 41 -108 81 -105 75 -152 110 -180 134 -8 8 -69 57 -135 109 -246 195 -611
553 -820 803 -27 33 -57 67 -65 75 -42 40 -300 393 -300 409 0 6 -6 14 -14 18
-12 7 -146 207 -146 218 0 2 -13 24 -30 48 -16 24 -44 71 -63 103 -18 32 -39
68 -45 79 -115 200 -252 472 -252 499 0 9 -4 16 -8 16 -4 0 -14 17 -21 37 -8
21 -24 61 -36 88 -43 95 -113 281 -168 445 -76 226 -92 280 -137 470 -62 258
-71 297 -80 353 -93 581 -92 569 -97 1107 -5 476 3 637 38 845 5 33 19 121 30
195 43 283 92 508 170 775 61 210 175 530 239 670 15 33 32 77 39 98 7 20 17
37 22 37 5 0 9 7 9 16 0 20 132 289 198 404 27 47 64 112 82 145 18 33 50 86
72 118 21 32 38 60 38 62 0 7 133 210 147 223 7 7 13 17 13 21 0 7 139 200
177 246 4 6 24 30 43 55 19 25 39 50 45 56 5 6 21 25 35 44 14 18 32 40 40 49
8 9 47 53 85 96 83 93 82 92 211 226 175 179 411 401 510 479 10 8 39 31 64
50 25 19 47 37 50 41 16 19 304 229 315 229 8 0 18 6 22 14 8 14 156 112 214
143 15 7 32 20 39 28 7 8 16 15 21 15 5 0 33 16 63 35 30 19 57 35 59 35 3 0
56 29 118 65 146 84 412 215 437 215 5 0 15 6 21 14 7 8 23 17 37 20 13 4 50
18 82 32 83 38 86 39 212 87 63 24 153 56 200 72 47 15 94 31 105 36 68 28
454 130 566 149 25 5 65 14 90 20 24 7 69 16 99 21 30 5 80 13 110 19 30 5 75
12 100 16 25 3 83 11 130 19 47 8 150 19 229 25 80 6 147 13 150 16 3 3 215 3
471 1 328 -3 509 -9 615 -20z"/>
<path d="M6760 12097 c-92 -26 -176 -104 -200 -187 -22 -75 -8 -197 28 -243
66 -85 180 -147 271 -147 47 0 164 43 194 71 19 17 19 18 -7 52 -36 47 -52 51
-98 27 -82 -42 -183 -17 -225 56 -27 47 -29 100 -5 169 14 42 24 53 62 73 62
32 139 24 193 -19 40 -32 43 -32 98 15 l34 29 -47 41 c-25 23 -65 48 -89 55
-63 19 -157 23 -209 8z"/>
<path d="M5856 12093 c-17 -5 -18 -12 -11 -101 4 -54 9 -115 12 -137 7 -59 22
-244 22 -287 l1 -37 67 6 c37 2 71 7 76 10 8 5 2 170 -8 238 -4 24 -24 242
-28 303 0 12 -89 16 -131 5z"/>
<path d="M5235 11999 c-22 -4 -69 -14 -105 -23 -36 -9 -101 -26 -145 -37 -44
-11 -94 -24 -111 -30 -17 -5 -40 -9 -52 -9 -25 0 -27 -14 -10 -70 15 -46 23
-48 108 -25 30 8 60 15 65 15 12 0 28 -55 69 -230 51 -214 41 -193 90 -187 99
14 107 26 82 113 -25 86 -76 303 -76 323 0 20 32 33 132 55 14 3 25 12 24 18
-14 71 -19 89 -25 91 -3 2 -24 0 -46 -4z"/>
<path d="M8360 11737 c-7 -18 -23 -55 -36 -84 -13 -28 -24 -54 -24 -57 0 -4
-8 -25 -19 -49 -10 -23 -38 -89 -61 -147 -24 -58 -47 -109 -52 -114 -17 -20
-7 -34 40 -51 26 -10 53 -23 60 -28 11 -8 19 -5 33 13 10 14 19 31 19 38 0 28
30 69 63 87 40 21 67 15 67 -17 0 -13 6 -43 14 -68 8 -25 21 -67 29 -95 15
-53 17 -54 125 -103 23 -11 42 -17 42 -13 -2 15 -21 96 -50 206 -17 66 -34
131 -37 145 -4 23 3 29 94 73 54 26 106 47 116 47 9 0 17 4 17 8 0 4 15 13 33
20 l32 13 -37 18 c-75 38 -100 43 -145 29 -24 -7 -43 -16 -43 -20 0 -4 -5 -8
-11 -8 -6 0 -41 -14 -77 -31 -109 -52 -112 -53 -119 -45 -4 4 0 26 9 49 9 23
25 67 37 97 26 68 26 66 -6 78 -16 6 -44 17 -64 26 l-37 15 -12 -32z"/>
<path d="M4160 11670 c0 -5 -4 -10 -9 -10 -5 0 -40 -15 -78 -32 -142 -66 -186
-198 -99 -293 40 -43 93 -51 201 -31 110 22 142 21 155 -4 6 -12 8 -30 5 -41
-8 -25 -62 -59 -92 -59 -12 0 -25 -4 -28 -10 -3 -5 -35 -10 -69 -10 -71 0 -77
-7 -68 -83 4 -35 6 -37 43 -37 132 0 277 70 335 161 25 41 33 119 14 142 -5 7
-21 26 -35 44 -40 50 -93 53 -280 18 -42 -9 -72 2 -78 27 -16 58 84 115 206
118 14 0 17 9 17 55 l0 55 -70 0 c-40 0 -70 -4 -70 -10z"/>
<path d="M9340 11249 c-12 -23 -26 -47 -31 -53 -23 -28 -79 -117 -79 -125 0
-5 -6 -16 -13 -23 -17 -18 -97 -143 -97 -152 0 -4 -7 -14 -15 -22 -14 -15 -31
-62 -24 -67 39 -26 112 -67 113 -65 1 2 27 41 57 88 50 76 83 129 196 313 18
29 32 57 33 64 0 6 -17 22 -37 34 -21 13 -48 29 -60 37 -21 13 -23 11 -43 -29z"/>
<path d="M3330 11225 c-7 -9 -28 -23 -46 -31 -19 -9 -34 -23 -34 -30 0 -8 24
-49 54 -92 160 -232 162 -235 132 -307 -17 -40 -72 -62 -130 -51 -41 8 -65 36
-175 199 -40 59 -79 107 -85 107 -10 0 -78 -43 -105 -66 -5 -5 15 -50 29 -67
6 -7 47 -64 91 -127 45 -63 87 -119 95 -123 8 -5 22 -16 32 -26 47 -49 140
-53 228 -10 88 44 148 106 168 177 14 50 14 61 0 108 -8 29 -26 69 -40 89 -13
20 -24 40 -24 45 0 4 -4 10 -8 12 -11 4 -120 159 -138 196 -8 16 -29 15 -44
-3z"/>
<path d="M6025 11029 c-176 -18 -406 -52 -515 -75 -63 -13 -124 -25 -135 -27
-48 -8 -223 -51 -255 -62 -19 -7 -75 -26 -125 -41 -49 -15 -94 -31 -100 -36
-5 -4 -17 -8 -26 -8 -19 0 -251 -92 -353 -140 -34 -16 -74 -32 -89 -35 -15 -4
-27 -11 -27 -15 0 -5 -16 -14 -36 -20 -20 -7 -67 -30 -104 -51 -37 -22 -72
-39 -79 -39 -6 0 -20 -8 -31 -17 -10 -10 -41 -29 -67 -43 -48 -24 -172 -102
-268 -167 -27 -19 -71 -48 -97 -65 -27 -17 -48 -35 -48 -39 0 -5 -6 -9 -13 -9
-7 0 -27 -13 -45 -30 -18 -16 -35 -30 -38 -30 -8 0 -208 -165 -283 -234 -97
-89 -302 -296 -363 -367 -68 -78 -86 -99 -127 -149 -20 -25 -43 -53 -52 -63
-9 -10 -34 -43 -55 -75 -21 -31 -44 -61 -50 -67 -5 -5 -22 -28 -37 -50 -14
-22 -41 -60 -58 -85 -36 -50 -44 -63 -111 -176 -26 -43 -51 -83 -55 -89 -4 -5
-17 -27 -28 -47 -11 -21 -23 -38 -27 -38 -5 0 -8 -6 -8 -14 0 -8 -16 -43 -35
-78 -19 -34 -38 -70 -41 -78 -4 -8 -23 -51 -44 -95 -84 -176 -175 -409 -227
-585 -14 -47 -29 -92 -33 -101 -17 -34 -114 -469 -124 -558 -4 -29 -11 -85
-17 -125 -6 -39 -12 -87 -14 -106 -2 -19 -8 -82 -14 -139 -14 -130 -14 -593 0
-726 5 -55 12 -116 14 -135 11 -113 47 -340 65 -421 48 -211 82 -353 90 -368
4 -9 17 -47 28 -86 55 -190 200 -553 283 -705 51 -94 69 -131 69 -144 0 -8 4
-16 9 -18 4 -1 19 -22 32 -45 13 -22 39 -67 58 -100 18 -32 49 -79 67 -104 19
-26 34 -49 34 -52 0 -12 116 -175 173 -242 15 -18 27 -36 27 -40 0 -3 6 -12
12 -20 7 -7 29 -32 48 -56 63 -77 101 -123 138 -168 83 -100 450 -455 516
-500 11 -8 50 -39 86 -68 36 -29 79 -63 95 -76 17 -14 57 -43 90 -66 33 -22
79 -54 103 -71 23 -16 45 -30 49 -30 3 0 26 -15 52 -34 60 -43 316 -190 409
-235 217 -103 379 -172 492 -210 36 -12 74 -26 85 -31 11 -5 52 -19 90 -30 39
-12 90 -28 115 -37 25 -8 61 -19 80 -23 19 -4 104 -24 189 -44 85 -20 167 -36
182 -36 15 0 30 -4 33 -8 2 -4 19 -9 38 -10 18 -1 80 -9 138 -17 168 -24 181
-25 260 -33 97 -9 663 -9 760 0 79 8 92 9 260 33 58 8 120 16 138 17 19 1 36
6 38 10 3 4 17 8 32 8 15 0 88 14 162 31 74 17 163 37 198 45 35 8 71 18 81
24 10 5 49 18 87 29 84 24 302 101 364 128 25 11 83 37 130 57 47 20 106 48
131 62 26 13 51 24 57 24 5 0 48 23 96 50 48 28 89 50 91 50 8 0 229 133 261
157 17 12 34 23 37 23 4 0 26 14 49 30 24 17 61 43 83 58 22 14 65 46 95 69
30 24 60 47 65 51 39 29 101 77 105 82 3 3 21 18 40 34 195 156 517 490 680
705 14 18 43 56 65 84 22 29 63 86 90 127 28 41 53 77 58 78 4 2 7 8 7 13 0 5
22 41 49 81 26 40 68 108 92 152 82 146 128 231 135 246 3 8 33 72 65 142 33
70 59 131 59 136 0 4 9 27 20 50 11 23 34 81 51 129 17 48 34 97 39 108 16 39
29 81 46 145 9 36 21 70 25 75 4 6 15 42 23 80 9 39 25 108 37 155 40 165 53
245 95 565 2 17 7 57 11 90 9 72 10 718 1 790 -4 28 -9 66 -12 85 -2 19 -9 71
-15 115 -26 206 -42 299 -80 455 -12 47 -28 116 -37 155 -8 38 -19 74 -23 80
-5 5 -14 35 -21 65 -12 51 -29 105 -50 155 -5 11 -18 48 -30 83 -25 76 -105
270 -159 384 -21 46 -42 90 -45 98 -3 8 -22 44 -41 78 -19 35 -35 70 -35 77 0
7 -4 15 -9 17 -4 2 -19 22 -32 44 -78 135 -95 163 -126 205 -18 26 -33 50 -33
54 0 3 -11 21 -25 39 -14 18 -25 38 -25 44 0 7 -4 12 -9 12 -5 0 -20 17 -32
38 -13 20 -41 60 -63 89 -23 28 -52 66 -66 84 -33 43 -129 161 -188 229 -64
74 -301 311 -387 387 -109 96 -254 213 -263 213 -5 0 -19 12 -33 26 -13 14
-53 45 -89 69 -143 98 -168 114 -250 166 -47 30 -107 66 -133 79 -26 14 -57
33 -67 43 -11 9 -25 17 -31 17 -7 0 -43 18 -81 40 -39 22 -73 40 -76 40 -4 0
-29 11 -57 24 -151 73 -404 178 -460 192 -16 4 -34 10 -40 14 -5 3 -37 15 -70
25 -33 10 -85 27 -115 38 -30 10 -75 23 -100 27 -25 4 -71 15 -102 25 -31 9
-70 18 -85 21 -15 2 -77 15 -138 28 -60 14 -153 30 -205 36 -52 6 -117 16
-145 21 -155 27 -722 39 -920 18z m620 -159 c230 -16 395 -33 395 -40 0 -4 30
-10 68 -13 37 -3 101 -13 142 -21 41 -9 109 -22 150 -31 41 -8 95 -21 120 -30
25 -8 81 -23 125 -34 147 -38 408 -132 575 -208 143 -66 329 -161 401 -204 44
-27 83 -49 85 -49 6 0 327 -213 346 -229 7 -7 40 -32 73 -57 64 -49 115 -91
235 -194 105 -91 341 -329 430 -436 41 -49 81 -95 89 -103 30 -32 121 -158
121 -168 0 -6 6 -13 13 -16 8 -3 53 -65 102 -139 48 -73 96 -145 106 -160 11
-15 19 -30 19 -33 0 -3 15 -29 33 -58 36 -57 37 -59 125 -232 137 -271 265
-603 312 -805 7 -30 16 -64 21 -75 20 -44 82 -369 108 -565 30 -219 36 -313
36 -570 0 -269 -10 -412 -40 -590 -8 -47 -19 -121 -26 -165 -13 -98 -55 -304
-74 -365 -7 -25 -19 -65 -25 -90 -19 -76 -62 -214 -70 -225 -4 -5 -11 -25 -15
-43 -6 -30 -80 -226 -104 -277 -6 -11 -20 -42 -32 -70 -54 -124 -180 -367
-226 -435 -12 -19 -23 -38 -23 -43 0 -4 -8 -20 -19 -35 -10 -15 -58 -87 -107
-161 -48 -73 -94 -135 -101 -138 -7 -3 -13 -9 -13 -14 0 -8 -73 -113 -90 -129
-3 -3 -25 -30 -50 -60 -89 -110 -168 -196 -296 -324 -130 -131 -165 -164 -259
-243 -28 -23 -61 -51 -75 -63 -32 -29 -168 -130 -174 -130 -3 0 -17 -11 -32
-26 -47 -43 -302 -207 -455 -292 -193 -107 -510 -252 -552 -252 -9 0 -17 -4
-19 -9 -4 -11 -307 -113 -388 -131 -30 -7 -62 -16 -71 -20 -14 -7 -63 -18
-279 -61 -30 -6 -71 -15 -91 -20 -20 -5 -57 -9 -83 -9 -25 0 -46 -4 -46 -9 0
-4 -62 -14 -137 -21 -76 -7 -158 -14 -183 -17 -59 -5 -602 -5 -660 1 -25 2
-97 9 -160 15 -63 7 -124 16 -135 21 -11 5 -45 11 -75 14 -30 3 -75 9 -100 14
-181 36 -308 64 -325 71 -11 5 -45 14 -75 21 -65 15 -338 104 -383 124 -18 8
-63 27 -102 42 -165 64 -435 197 -567 281 -21 12 -40 23 -43 23 -3 0 -18 8
-33 19 -15 10 -87 58 -160 106 -74 49 -136 94 -139 102 -3 7 -10 13 -16 13
-10 0 -136 91 -168 121 -8 8 -54 48 -103 89 -85 71 -353 333 -405 396 -14 16
-52 61 -86 99 -141 159 -282 356 -422 590 -103 172 -94 156 -164 295 -70 139
-113 233 -146 320 -13 36 -29 74 -35 85 -17 31 -66 178 -104 315 -20 69 -41
145 -49 170 -33 112 -70 297 -84 426 -5 39 -11 76 -15 82 -7 12 -23 174 -36
357 -9 141 -3 571 10 644 5 31 14 101 19 156 19 192 67 450 105 570 7 22 19
65 25 95 13 58 115 368 130 398 5 9 19 44 32 77 53 143 211 464 282 572 15 24
27 46 27 49 0 11 210 323 254 378 23 28 63 81 91 116 27 36 54 70 60 75 6 6
40 44 76 85 72 84 317 330 400 402 134 116 261 215 426 333 40 29 224 145 229
145 3 0 33 18 68 40 35 22 68 40 74 40 6 0 12 4 14 8 3 7 233 123 343 172 177
80 466 182 595 211 30 6 73 18 95 26 22 7 74 20 115 28 41 9 109 22 150 31
163 33 469 70 595 73 49 1 91 4 94 7 8 7 262 4 406 -6z"/>
<path d="M4569 9135 c-190 -46 -390 -273 -450 -510 -55 -221 -54 -371 5 -580
20 -72 41 -124 54 -137 7 -7 12 -16 12 -20 0 -9 68 -116 87 -135 6 -7 20 -23
30 -36 23 -29 117 -103 157 -124 17 -9 54 -24 81 -34 l50 -17 5 -123 5 -123
47 3 c25 1 68 6 95 9 l48 7 5 114 5 114 30 9 c32 10 117 49 125 58 3 3 18 14
34 24 136 86 261 299 301 510 21 111 21 308 -1 414 -15 73 -70 231 -85 242 -3
3 -14 20 -24 39 -9 19 -28 46 -41 60 -13 14 -24 29 -24 33 0 13 -101 102 -160
141 -107 70 -257 94 -391 62z m-212 -297 c-7 -18 -15 -35 -18 -38 -5 -5 -38
-104 -76 -235 -14 -47 -18 -96 -18 -230 0 -160 2 -175 29 -255 15 -47 32 -89
37 -95 5 -5 9 -16 9 -25 0 -12 39 -78 67 -115 46 -58 104 -148 99 -153 -8 -8
-96 78 -146 143 -51 66 -116 195 -136 270 -22 83 -29 265 -15 363 17 118 69
259 130 359 32 53 55 59 38 11z"/>
<path d="M7758 9064 c-59 -31 -58 -23 -58 -766 0 -577 2 -682 14 -694 8 -8 17
-11 20 -6 2 4 6 203 8 442 4 553 7 680 17 680 18 0 21 -70 26 -595 3 -297 8
-555 11 -572 3 -18 10 -33 17 -33 7 0 28 -15 48 -33 20 -17 52 -44 70 -59 l34
-27 295 -1 c274 0 328 -5 306 -27 -4 -5 -131 -10 -282 -13 l-275 -5 57 -50
c50 -45 61 -50 103 -50 l46 0 3 -51 c3 -46 9 -59 65 -125 34 -41 72 -85 84
-99 13 -14 23 -28 23 -32 0 -5 5 -8 10 -8 6 0 10 58 10 154 l0 154 31 6 c17 3
120 6 228 6 186 0 198 1 220 21 12 11 28 33 34 47 9 20 13 240 15 820 3 718 2
798 -14 844 -38 115 -153 110 -183 -9 -8 -31 -11 -222 -11 -622 1 -401 -2
-591 -10 -620 -16 -61 -54 -81 -150 -81 -56 0 -80 5 -96 18 -50 40 -49 27 -54
697 -4 458 -8 636 -17 651 -17 29 -75 58 -104 51 -36 -9 -67 -42 -78 -84 -7
-25 -11 -251 -11 -633 0 -562 -1 -597 -19 -637 -11 -23 -28 -46 -39 -52 -12
-6 -56 -11 -99 -11 -84 1 -103 9 -135 57 -17 26 -18 64 -18 637 0 413 -4 620
-11 645 -11 37 -61 81 -90 81 -8 -1 -26 -8 -41 -16z"/>
<path d="M6030 8157 c-3 -3 -30 -8 -60 -11 -237 -23 -459 -133 -559 -275 -22
-33 -41 -63 -41 -67 0 -4 -6 -15 -14 -23 -7 -9 -27 -54 -44 -101 -28 -76 -40
-127 -72 -295 -12 -67 -24 -167 -22 -182 2 -6 -2 -14 -8 -18 -5 -3 -10 -15
-10 -26 0 -25 -10 -24 -56 7 -21 14 -65 35 -98 45 -34 11 -68 22 -76 25 -36
15 -230 25 -290 14 -50 -9 -192 -51 -200 -59 -3 -4 -35 -21 -72 -40 -37 -19
-78 -44 -92 -55 -59 -50 -66 -56 -71 -56 -6 0 -86 -80 -130 -131 -38 -43 -115
-162 -115 -177 0 -7 -4 -12 -9 -12 -5 0 -13 -10 -17 -22 -4 -13 -18 -45 -31
-73 -30 -63 -71 -233 -80 -330 -3 -43 -1 -100 6 -137 17 -89 54 -232 62 -238
3 -3 14 -21 24 -40 44 -87 188 -241 285 -305 56 -36 161 -90 206 -105 19 -7
34 -15 34 -20 0 -4 15 -10 33 -13 17 -2 57 -11 87 -20 74 -21 217 -45 260 -44
19 1 60 0 91 -1 l56 -2 16 -62 c44 -178 80 -365 101 -523 3 -22 8 -53 11 -70
4 -16 10 -77 13 -135 7 -100 8 -104 32 -111 58 -16 216 -4 340 26 122 29 490
71 705 79 338 13 540 10 750 -14 44 -5 109 -12 145 -15 36 -4 69 -11 74 -16 6
-5 23 -9 39 -9 30 0 144 -38 197 -65 16 -8 33 -15 37 -15 5 0 10 27 11 61 2
33 12 111 23 172 11 62 24 141 29 177 19 131 47 264 100 480 20 83 79 243 92
251 7 5 24 6 38 3 14 -3 66 -10 115 -15 215 -23 444 39 558 151 40 40 40 41
10 24 -18 -10 -33 -21 -33 -24 0 -3 -26 -14 -57 -24 -32 -10 -67 -22 -78 -26
-36 -14 -137 -30 -194 -30 -72 0 -223 20 -235 31 -6 5 -21 9 -34 9 -24 0 -88
15 -127 30 -11 4 -47 17 -80 30 -115 43 -266 129 -414 238 -104 76 -123 93
-308 270 -146 139 -266 242 -281 242 -5 0 16 -26 68 -81 32 -34 57 -63 100
-119 19 -25 39 -50 45 -56 5 -6 21 -25 35 -43 14 -19 60 -74 102 -125 43 -50
78 -95 78 -100 0 -4 -26 -5 -57 -2 -32 4 -83 9 -113 12 -30 2 -80 7 -110 10
-276 32 -819 29 -1190 -6 -163 -15 -170 -11 -65 39 108 51 375 185 465 233 86
47 307 162 398 208 81 42 151 70 171 70 8 0 19 6 25 14 6 7 40 23 76 35 36 13
74 27 85 31 46 18 193 54 270 66 28 4 53 8 58 10 4 1 64 3 135 4 116 2 122 3
72 12 -62 11 -395 1 -395 -12 0 -1 -19 -4 -43 -6 -24 -2 -67 -11 -97 -19 -30
-9 -67 -18 -82 -21 -15 -3 -50 -11 -78 -20 -27 -8 -75 -22 -105 -31 -30 -10
-59 -21 -64 -25 -6 -4 -19 -8 -30 -8 -12 0 -39 -9 -61 -19 -22 -11 -60 -28
-85 -39 -131 -58 -223 -102 -325 -157 -38 -21 -90 -48 -115 -62 -47 -25 -59
-31 -100 -54 -25 -13 -112 -58 -225 -116 -59 -30 -146 -71 -237 -112 -83 -36
-345 -121 -376 -121 -17 0 -33 -4 -36 -8 -10 -17 -203 -35 -322 -30 -125 6
-129 -2 -14 -28 65 -15 323 -18 349 -5 50 27 77 -22 148 -263 53 -183 54 -166
-3 -161 -177 15 -386 76 -507 147 -26 15 -50 28 -53 28 -10 0 -89 57 -126 92
-21 19 -48 43 -60 54 -33 30 -90 94 -117 132 -20 28 -93 187 -89 195 0 1 -5
40 -11 87 -12 82 -10 204 3 217 3 4 6 18 6 33 0 49 39 175 80 255 49 97 89
165 107 183 7 7 13 17 13 22 0 18 178 189 238 228 35 23 65 42 67 42 3 0 28
11 57 24 68 31 117 44 198 52 76 8 76 8 155 -1 97 -10 192 -40 247 -77 l27
-19 -26 -72 c-14 -40 -29 -73 -34 -75 -5 -2 -9 -10 -9 -17 0 -35 -126 -185
-156 -185 -3 0 -17 -9 -31 -20 -29 -23 -17 -28 13 -5 10 8 26 15 35 15 8 0 26
11 39 25 13 14 27 25 31 25 22 0 129 133 129 160 0 5 4 10 9 10 4 0 21 35 36
78 15 42 33 91 40 107 6 17 19 62 28 100 44 189 69 292 77 310 5 11 13 36 19
55 17 53 35 90 43 90 5 0 8 6 8 13 0 20 52 90 105 140 104 100 321 167 537
167 69 0 268 -21 343 -36 83 -16 116 -24 132 -32 10 -5 48 -17 86 -25 37 -9
91 -27 120 -41 28 -13 82 -36 119 -50 65 -25 158 -72 228 -115 19 -11 46 -26
60 -33 14 -7 57 -34 97 -60 40 -26 77 -48 83 -48 5 0 10 -4 10 -8 0 -5 12 -15
28 -23 39 -20 94 -59 118 -86 12 -13 25 -23 30 -23 5 0 24 -13 42 -30 18 -16
36 -30 39 -30 7 0 74 -52 153 -120 105 -89 199 -181 368 -357 12 -13 22 -28
22 -33 0 -5 8 -15 18 -22 16 -11 70 -80 130 -167 9 -13 25 -32 35 -43 9 -10
17 -22 17 -26 0 -5 13 -27 28 -48 16 -21 50 -79 77 -129 26 -49 52 -97 56
-105 59 -105 133 -326 175 -520 33 -153 32 -362 -2 -446 -21 -53 -64 -103
-125 -149 -54 -40 -250 -104 -341 -112 -37 -3 -66 -9 -64 -12 7 -10 -101 -16
-284 -15 -166 0 -172 0 -125 -13 111 -31 413 -55 438 -35 6 5 43 10 82 11 38
1 74 6 79 11 6 6 22 10 38 10 30 0 151 38 213 66 53 25 165 124 165 145 0 4 6
14 13 21 7 7 25 52 40 100 28 84 28 92 23 245 -3 87 -7 174 -10 193 -11 87
-16 118 -27 160 -42 169 -116 374 -179 495 -63 120 -102 189 -127 221 -13 17
-23 34 -23 37 0 7 -68 106 -80 117 -3 3 -17 23 -32 45 -31 45 -50 68 -148 175
-87 97 -138 147 -241 242 -126 117 -156 143 -185 164 -15 10 -34 26 -43 34 -9
8 -63 49 -121 90 -58 41 -106 78 -108 82 -2 5 -8 8 -14 8 -6 0 -25 10 -42 23
-69 52 -301 186 -396 228 -25 11 -67 31 -93 44 -27 14 -57 25 -66 25 -9 0 -21
4 -26 8 -14 12 -128 52 -149 52 -9 0 -16 5 -16 10 0 6 -10 10 -21 10 -12 0
-52 9 -88 19 -36 11 -86 22 -111 25 -25 3 -56 8 -70 11 -50 12 -88 15 -240 21
-85 3 -157 4 -160 1z m840 -2227 c36 -5 99 -10 141 -10 l76 0 67 -55 c37 -30
80 -62 96 -72 17 -9 30 -21 30 -25 0 -4 7 -8 16 -8 9 0 28 -8 42 -18 25 -17
142 -74 187 -92 81 -31 75 -24 75 -97 0 -91 -38 -332 -62 -392 -5 -14 -14 -48
-18 -76 -10 -61 -45 -196 -98 -370 l-38 -130 -40 1 c-43 2 -150 17 -234 33
-314 62 -768 97 -1095 86 -110 -4 -207 -7 -215 -7 -8 0 -64 -6 -125 -14 -60
-8 -146 -19 -190 -24 -44 -6 -107 -18 -140 -27 -113 -29 -99 -36 -134 69 -42
128 -81 264 -92 318 -5 25 -15 68 -23 95 -17 60 -60 270 -71 345 -45 317 -44
304 -28 317 9 7 36 15 62 18 25 4 60 11 76 15 40 12 93 22 235 45 19 3 73 12
120 20 192 32 359 48 670 65 175 9 620 3 710 -10z"/>
<path d="M4602 4502 l3 -847 98 -3 97 -3 -2 838 -3 838 -50 6 c-27 4 -71 10
-98 13 l-47 6 2 -848z m75 711 c9 -47 10 -1124 1 -1252 -7 -93 -11 -111 -25
-97 -10 10 -17 1084 -8 1254 7 133 18 164 32 95z"/>
<path d="M8325 4970 c3 -5 0 -10 -8 -10 -13 0 -15 -79 -16 -572 0 -546 -3
-609 -28 -584 -13 12 -21 482 -16 834 l5 322 -21 0 -21 0 0 -655 0 -655 95 0
95 0 0 665 0 665 -46 0 c-27 0 -43 -4 -39 -10z"/>
<path d="M9920 10868 c0 -7 -12 -24 -26 -39 l-25 -26 60 -49 c33 -27 60 -56
60 -64 1 -14 -63 -101 -92 -125 -7 -5 -37 -39 -67 -75 -30 -35 -67 -78 -82
-94 -16 -16 -28 -33 -28 -38 0 -10 68 -75 91 -89 13 -7 27 4 64 49 27 31 55
64 64 72 14 13 37 39 145 167 28 33 46 29 107 -26 54 -49 54 -49 75 -30 12 11
27 31 34 44 12 23 10 27 -36 67 -27 24 -67 60 -88 81 -22 20 -42 37 -45 37 -4
0 -24 17 -46 38 -99 94 -165 134 -165 100z"/>
<path d="M2430 10471 c-8 -5 -28 -15 -45 -22 -28 -13 -255 -235 -255 -249 0
-7 73 -80 280 -279 l115 -111 47 50 c27 27 48 53 48 57 0 5 -20 28 -45 53 -24
25 -44 50 -44 55 0 6 9 21 20 34 22 27 37 28 150 16 60 -6 78 -5 87 6 6 8 27
32 46 55 l35 41 -82 13 c-113 18 -115 19 -109 78 3 34 -1 59 -13 83 -20 39
-76 93 -119 114 -31 16 -92 19 -116 6z m59 -147 c68 -34 69 -91 4 -163 -25
-28 -51 -51 -57 -51 -14 0 -116 101 -116 116 0 26 97 114 126 114 6 0 25 -7
43 -16z"/>
<path d="M10575 10059 c-73 -28 -140 -81 -172 -136 -25 -43 -28 -57 -28 -138
0 -86 2 -94 35 -149 61 -101 156 -170 228 -164 l37 3 0 55 c1 60 -6 70 -49 70
-46 0 -112 73 -121 133 -11 72 24 140 88 174 38 19 137 22 170 4 39 -21 77
-89 77 -138 0 -48 8 -54 83 -66 34 -5 39 -3 48 20 10 27 0 80 -29 148 -24 58
-96 130 -160 161 -32 15 -65 31 -74 36 -28 13 -79 8 -133 -13z"/>
<path d="M11270 9214 c-47 -24 -116 -59 -155 -76 -38 -18 -76 -38 -83 -45 -7
-6 -28 -17 -47 -24 -19 -7 -35 -16 -35 -19 0 -4 -18 -15 -40 -25 -22 -10 -40
-24 -40 -32 0 -26 55 -112 70 -110 8 1 45 19 82 40 98 55 105 53 156 -45 23
-46 42 -90 42 -99 0 -18 -31 -42 -70 -54 -14 -4 -27 -10 -30 -14 -3 -3 -22
-14 -42 -23 -21 -10 -38 -21 -38 -26 0 -17 62 -122 72 -122 5 0 35 15 66 33
31 18 132 70 224 116 92 46 172 89 178 96 10 12 -3 49 -38 112 l-12 23 -48
-23 c-26 -12 -49 -25 -52 -28 -9 -11 -69 -39 -83 -39 -13 0 -67 96 -67 119 0
6 -4 11 -9 11 -8 0 -31 52 -31 71 0 5 6 9 14 9 8 0 16 4 18 8 4 10 130 72 146
72 8 0 -41 108 -62 137 -1 1 -39 -18 -86 -43z"/>
<path d="M1281 8947 c-112 -231 -111 -227 -100 -227 5 0 35 -13 66 -29 60 -30
159 -78 328 -161 55 -27 100 -48 100 -47 39 73 185 381 185 389 0 7 -21 23
-45 35 l-45 21 -63 -126 c-57 -115 -65 -127 -87 -124 -38 4 -80 25 -80 40 0 7
23 60 51 118 29 57 50 106 48 108 -11 9 -69 36 -79 36 -15 0 -40 -26 -40 -42
0 -7 -18 -47 -39 -88 -34 -65 -42 -75 -64 -73 -14 1 -37 9 -52 19 -30 20 -29
28 26 124 21 38 39 75 39 82 0 7 7 22 15 32 19 25 19 46 1 46 -8 0 -30 9 -48
19 l-33 20 -84 -172z"/>
<path d="M11798 8195 c-3 -3 -61 -21 -129 -40 -68 -19 -158 -44 -199 -56 -41
-12 -82 -25 -90 -29 -9 -4 -30 -11 -48 -15 -18 -3 -32 -13 -32 -20 0 -17 22
-102 43 -165 8 -25 22 -72 31 -105 33 -118 40 -137 50 -141 15 -5 90 22 93 33
2 6 -10 52 -27 104 -17 52 -33 112 -36 135 l-6 41 46 15 c46 15 48 15 60 -6 7
-11 21 -50 30 -86 10 -36 22 -73 27 -82 5 -10 9 -25 9 -33 0 -18 0 -18 56 -4
29 8 44 17 44 28 0 20 -39 160 -51 183 -16 31 -10 46 22 57 69 24 65 29 121
-150 l33 -107 48 15 c30 10 47 22 47 32 0 20 -13 72 -45 176 -14 44 -34 113
-45 153 -19 64 -34 84 -52 67z"/>
<path d="M939 8103 c-5 -15 -12 -45 -16 -68 l-5 -41 58 -16 c33 -9 76 -20 97
-23 40 -8 46 -23 28 -81 -5 -16 -17 -57 -26 -91 -21 -73 -22 -73 -125 -42 -38
11 -77 19 -86 17 -12 -2 -23 -24 -35 -66 -17 -59 -17 -63 -1 -68 9 -3 26 -10
37 -15 11 -4 34 -10 50 -13 43 -7 226 -55 250 -65 50 -22 175 -45 186 -34 5 5
16 36 23 67 16 66 19 63 -87 86 -32 8 -60 17 -63 22 -3 4 -14 8 -26 8 -17 0
-19 5 -15 28 7 42 46 185 52 190 4 5 167 -32 200 -45 14 -5 30 36 41 102 l6
41 -74 18 c-40 10 -91 24 -113 31 -22 7 -58 17 -80 23 -22 5 -81 22 -132 36
-117 33 -131 33 -144 -1z"/>
<path d="M11945 7170 c-22 -4 -87 -11 -144 -14 -57 -4 -136 -11 -175 -16 -39
-5 -79 -10 -88 -10 -15 0 -18 -10 -18 -71 l0 -71 93 6 c50 4 118 9 150 12 33
4 57 2 57 -3 0 -6 -61 -70 -135 -144 l-135 -134 2 -63 2 -63 46 5 c25 2 63 7
85 10 22 3 72 8 110 11 51 3 246 18 313 25 6 0 0 127 -7 139 -6 10 -19 12 -42
7 -43 -9 -216 -22 -229 -18 -20 7 -9 24 48 78 31 30 90 87 130 126 l73 71 -3
61 -3 61 -45 1 c-25 0 -63 -2 -85 -6z"/>
<path d="M716 7051 c-3 -5 -10 -101 -16 -213 -5 -111 -12 -220 -15 -240 l-5
-38 60 0 60 0 1 68 c1 37 0 73 -1 81 -1 12 22 13 147 8 81 -4 182 -10 224 -13
87 -6 89 -5 89 93 l0 51 -117 6 c-65 3 -137 11 -161 16 -23 6 -67 10 -97 10
-37 0 -55 4 -56 13 0 6 0 44 0 83 1 66 0 72 -21 78 -34 9 -86 7 -92 -3z"/>
<path d="M1035 5456 c-5 -2 -34 -12 -64 -21 -258 -80 -373 -399 -224 -622 21
-31 42 -65 48 -75 5 -10 13 -18 17 -18 5 0 31 -16 58 -36 96 -69 237 -88 365
-52 86 25 193 118 240 208 84 163 56 362 -69 485 -57 56 -145 110 -197 120
-42 9 -161 16 -174 11z m140 -167 c38 -11 104 -55 133 -89 56 -65 71 -203 30
-278 -58 -103 -128 -145 -241 -143 -112 2 -189 50 -233 146 -66 145 0 305 148
356 62 21 108 23 163 8z"/>
<path d="M1080 5151 c-71 -16 -104 -69 -89 -142 24 -112 184 -120 220 -11 16
48 -3 113 -39 130 -48 24 -67 28 -92 23z"/>
<path d="M11574 5445 c-101 -24 -237 -132 -265 -209 -7 -20 -16 -36 -21 -36
-4 0 -10 -17 -15 -37 -4 -21 -8 -40 -8 -43 -20 -95 -11 -164 32 -260 26 -59
105 -147 167 -187 90 -58 258 -74 362 -35 62 23 150 87 186 134 26 35 68 119
83 166 11 36 8 168 -5 210 -30 99 -103 193 -193 249 -96 61 -206 77 -323 48z
m192 -162 c65 -20 133 -87 157 -153 19 -50 23 -155 7 -165 -5 -3 -10 -15 -10
-26 0 -41 -59 -106 -129 -143 -49 -25 -164 -26 -217 -2 -46 22 -109 80 -129
119 -24 48 -29 135 -12 201 28 106 129 182 246 185 19 1 58 -7 87 -16z"/>
<path d="M11633 5139 c-40 -19 -73 -66 -73 -102 0 -59 60 -117 120 -117 116 0
164 150 67 209 -51 30 -70 32 -114 10z"/>
<path d="M1960 3584 c-11 -25 -20 -50 -20 -55 0 -5 -4 -9 -10 -9 -5 0 -10 -8
-10 -17 0 -34 -63 -174 -84 -187 -12 -8 -90 -19 -184 -26 -177 -14 -196 -22
-151 -64 13 -12 65 -55 114 -96 50 -41 95 -80 102 -86 27 -26 24 -65 -13 -213
-43 -170 -41 -189 18 -157 73 39 98 54 113 66 21 17 76 49 98 56 9 4 17 10 17
15 0 5 17 9 37 9 26 0 57 -13 106 -42 162 -101 203 -122 217 -113 14 8 13 15
-29 190 -18 74 -29 141 -25 155 3 14 28 43 55 65 27 22 70 59 96 82 27 23 52
43 57 43 14 0 46 42 46 60 0 18 -14 20 -259 39 -97 7 -110 18 -149 123 -13 35
-37 91 -53 125 -16 35 -29 67 -29 73 0 5 -9 10 -20 10 -15 0 -26 -13 -40 -46z"/>
<path d="M10745 3581 c-14 -28 -25 -55 -25 -60 0 -6 -11 -34 -24 -63 -14 -29
-27 -65 -31 -80 -4 -14 -19 -37 -33 -51 -23 -21 -40 -26 -107 -31 -218 -15
-244 -19 -250 -35 -6 -16 1 -24 105 -111 105 -88 140 -123 146 -144 3 -12 -7
-69 -21 -127 -49 -191 -53 -219 -31 -219 17 0 89 40 94 52 2 4 12 8 22 8 10 0
20 3 22 8 3 8 84 62 93 62 4 0 13 7 21 15 29 29 80 18 165 -35 44 -27 83 -50
86 -50 4 0 21 -11 38 -24 44 -34 80 -42 89 -21 3 9 3 21 0 26 -3 5 -14 51 -25
102 -11 51 -24 112 -30 137 -18 82 -13 89 150 219 67 55 101 88 99 99 -3 18
-9 19 -228 36 -130 11 -129 10 -154 69 -13 29 -29 66 -36 82 -7 17 -27 64 -44
105 -39 94 -56 100 -91 31z"/>
<path d="M3949 1909 c-38 -88 -72 -157 -84 -164 -11 -7 -60 -16 -110 -19 -232
-16 -235 -16 -235 -41 0 -14 14 -33 37 -51 35 -28 91 -75 143 -121 14 -13 28
-23 33 -23 4 0 15 -16 24 -35 14 -30 15 -42 5 -83 -68 -277 -69 -292 -23 -277
11 3 54 28 96 56 42 27 80 49 85 49 6 0 10 4 10 8 0 13 67 42 96 42 35 0 214
-102 214 -121 0 -5 7 -9 15 -9 9 0 27 -7 40 -16 29 -19 55 -12 55 15 0 10 -14
72 -31 137 -17 66 -33 130 -36 143 -8 32 19 80 60 109 17 12 50 38 72 57 22
19 43 35 46 35 4 0 25 18 48 39 37 35 40 41 26 54 -15 15 -50 20 -230 32 -88
6 -145 26 -145 51 0 12 -42 115 -60 146 -6 10 -10 23 -10 30 0 25 -45 103 -62
106 -12 2 -31 -32 -79 -149z"/>
<path d="M8501 1848 c-10 -24 -28 -65 -39 -93 -55 -133 -74 -172 -93 -183 -11
-7 -50 -15 -87 -17 -220 -15 -262 -22 -262 -45 0 -5 54 -56 119 -112 66 -56
125 -113 131 -128 9 -22 4 -53 -25 -171 -19 -79 -35 -151 -35 -160 0 -28 26
-29 63 -3 20 13 39 24 43 24 3 0 23 14 44 30 21 17 40 30 44 30 3 0 27 14 53
31 69 44 96 37 263 -69 36 -23 70 -46 77 -52 15 -13 50 -13 58 0 3 5 -8 64
-26 132 -17 68 -31 147 -32 177 -1 46 2 56 23 73 14 10 37 29 51 42 15 12 39
30 54 40 14 9 34 25 44 34 10 9 32 29 49 45 31 27 40 51 24 61 -5 3 -56 8
-113 11 -230 11 -253 20 -278 107 -7 24 -18 52 -25 63 -7 11 -19 38 -26 60
-21 65 -49 115 -65 115 -9 0 -24 -19 -34 -42z"/>
<path d="M6250 1428 c-5 -13 -32 -79 -60 -148 -27 -69 -59 -133 -71 -142 -14
-12 -38 -18 -75 -18 -99 0 -258 -21 -274 -37 -16 -15 -19 -12 84 -96 21 -18
49 -41 61 -52 13 -11 42 -35 65 -54 41 -33 42 -35 37 -85 -5 -50 -9 -70 -40
-191 -30 -117 -31 -125 -9 -125 11 0 78 36 150 80 139 86 177 97 223 62 58
-44 233 -143 245 -138 18 7 17 26 -2 101 -9 33 -19 78 -23 100 -4 22 -14 59
-21 82 -10 34 -10 48 0 72 7 17 15 31 19 31 3 0 17 10 31 23 14 12 48 40 75
62 28 22 59 48 70 57 11 9 30 25 43 35 19 15 21 21 10 35 -14 17 -162 38 -272
38 -36 0 -61 6 -75 18 -13 9 -47 80 -80 162 -47 117 -63 146 -80 148 -14 2
-24 -4 -31 -20z"/>
</g>
</svg>
